<svg width="17" height="9" viewBox="0 0 17 9" fill="none" xmlns="http://www.w3.org/2000/svg">
<g clip-path="url(#clip0_45_4)">
<path d="M16.7734 1.28055L9.04616 8.78055C8.97439 8.85029 8.88917 8.90561 8.79536 8.94335C8.70155 8.98109 8.601 9.00052 8.49945 9.00052C8.3979 9.00052 8.29735 8.98109 8.20354 8.94335C8.10974 8.90561 8.02451 8.85029 7.95275 8.78055L0.225476 1.28055C0.0804807 1.13982 -0.000976562 0.948952 -0.000976562 0.749929C-0.000976562 0.550906 0.0804807 0.360034 0.225476 0.219303C0.370471 0.0785729 0.567126 -0.000488281 0.77218 -0.000488281C0.977234 -0.000488281 1.17389 0.0785729 1.31888 0.219303L8.49945 7.18962L15.68 0.219303C15.7518 0.149621 15.837 0.0943455 15.9309 0.0566335C16.0247 0.0189215 16.1252 -0.000488281 16.2267 -0.000488281C16.3283 -0.000488281 16.4288 0.0189215 16.5226 0.0566335C16.6164 0.0943455 16.7016 0.149621 16.7734 0.219303C16.8452 0.288986 16.9022 0.371712 16.941 0.462756C16.9799 0.553801 16.9999 0.651383 16.9999 0.749929C16.9999 0.848475 16.9799 0.946056 16.941 1.0371C16.9022 1.12815 16.8452 1.21087 16.7734 1.28055Z" fill="#00FBAC"/>
</g>
<defs>
<clipPath id="clip0_45_4">
<rect width="17" height="9" fill="white"/>
</clipPath>
</defs>
</svg>
