<svg width="9" height="17" viewBox="0 0 9 17" fill="none" xmlns="http://www.w3.org/2000/svg">
<g clip-path="url(#clip0_44_2)">
<path d="M8.78007 9.04665L1.28007 16.7739C1.21038 16.8457 1.12766 16.9027 1.03661 16.9415C0.945568 16.9804 0.847987 17.0004 0.74944 17.0004C0.650894 17.0004 0.553313 16.9804 0.462268 16.9415C0.371223 16.9027 0.288498 16.8457 0.218815 16.7739C0.149132 16.7021 0.0938572 16.6169 0.0561452 16.5231C0.0184332 16.4293 -0.000976563 16.3287 -0.000976562 16.2272C-0.000976563 16.1257 0.0184332 16.0251 0.0561452 15.9313C0.0938572 15.8375 0.149132 15.7523 0.218815 15.6805L7.18913 8.49994L0.218815 1.31937C0.0780846 1.17438 -0.000976564 0.977723 -0.000976562 0.772669C-0.000976561 0.567615 0.0780846 0.370959 0.218815 0.225964C0.359546 0.080969 0.550417 -0.00048828 0.74944 -0.000488281C0.948463 -0.000488283 1.13934 0.080969 1.28007 0.225964L8.78007 7.95324C8.8498 8.025 8.90512 8.11023 8.94286 8.20403C8.9806 8.29784 9.00003 8.39839 9.00003 8.49994C9.00003 8.60149 8.9806 8.70204 8.94286 8.79585C8.90512 8.88966 8.8498 8.97488 8.78007 9.04665Z" fill="#00FBAC"/>
</g>
<defs>
<clipPath id="clip0_44_2">
<rect width="9" height="17" fill="white"/>
</clipPath>
</defs>
</svg>
